<svg width="1200" height="630" viewBox="0 0 1200 630" fill="none" xmlns="http://www.w3.org/2000/svg">
  <defs>
    <radialGradient id="gold" cx="0.5" cy="0.5" r="0.5"><stop stop-color="#ffe08a"/><stop offset="1" stop-color="#ffc53d"/></radialGradient>
  </defs>
  <rect width="1200" height="630" fill="#081124"/>
  <rect x="0" y="0" width="1200" height="10" fill="#5ad7ff"/>
  <rect x="0" y="620" width="1200" height="10" fill="#34d399"/>

  <!-- logo mark -->
  <g transform="translate(96,140)">
    <rect x="0" y="0" width="120" height="120" rx="34" fill="#0A1426" stroke="#5ad7ff" stroke-width="2.5"/>
    <path d="M22 90 L46 55 L58 68 L80 33 L98 90 Z" fill="#123a5a"/>
    <path d="M22 90 L46 55 L58 68 L80 33 L98 90" stroke="#5ad7ff" stroke-width="7" stroke-linejoin="round" stroke-linecap="round"/>
    <path d="M22 95 H98" stroke="#1D3355" stroke-width="4.5" stroke-linecap="round"/>
    <circle cx="80" cy="33" r="11" fill="url(#gold)"/>
  </g>

  <text x="244" y="195" font-family="'DejaVu Sans',sans-serif" font-size="52" font-weight="bold" fill="#ffffff">DataPeaks Solutions</text>
  <text x="246" y="235" font-family="'DejaVu Sans',sans-serif" font-size="19" font-weight="bold" letter-spacing="6" fill="#7FA6C9">DATA &amp; AI TRAINING · HYDERABAD</text>

  <text x="96" y="360" font-family="'DejaVu Sans',sans-serif" font-size="70" font-weight="bold" fill="#ffffff">Scaling the Pinnacles</text>
  <text x="96" y="438" font-family="'DejaVu Sans',sans-serif" font-size="70" font-weight="bold" fill="#5ad7ff">of Data &amp; AI</text>

  <text x="98" y="498" font-family="'DejaVu Sans',sans-serif" font-size="25" fill="#a9bbd6">Project-first learning · 6 tracks · Level 1 free · pharma focus</text>

  <g font-family="'DejaVu Sans',sans-serif" font-size="21" font-weight="bold">
    <g transform="translate(98,540)"><rect width="90" height="46" rx="23" fill="#0e1a30" stroke="#5ad7ff"/><text x="45" y="30" text-anchor="middle" fill="#5ad7ff">CDA</text></g>
    <g transform="translate(200,540)"><rect width="90" height="46" rx="23" fill="#0e1a30" stroke="#34d399"/><text x="45" y="30" text-anchor="middle" fill="#34d399">CDS</text></g>
    <g transform="translate(302,540)"><rect width="90" height="46" rx="23" fill="#0e1a30" stroke="#4f8dff"/><text x="45" y="30" text-anchor="middle" fill="#4f8dff">MLE</text></g>
    <g transform="translate(404,540)"><rect width="78" height="46" rx="23" fill="#0e1a30" stroke="#ffc53d"/><text x="39" y="30" text-anchor="middle" fill="#ffc53d">DE</text></g>
    <g transform="translate(494,540)"><rect width="90" height="46" rx="23" fill="#0e1a30" stroke="#b79cff"/><text x="45" y="30" text-anchor="middle" fill="#b79cff">GAI</text></g>
    <g transform="translate(596,540)"><rect width="90" height="46" rx="23" fill="#0e1a30" stroke="#f78fc2"/><text x="45" y="30" text-anchor="middle" fill="#f78fc2">AAI</text></g>
  </g>
</svg>
